<svg data-v-54e62159="" width="20" height="20" viewBox="0 0 20 20" fill="none" xmlns="http://www.w3.org/2000/svg" xmlns:xlink="http://www.w3.org/1999/xlink"><defs data-v-54e62159=""><clipPath data-v-54e62159="" id="clip1348_20218"><rect data-v-54e62159="" id="点踩0718" width="20.000000" height="20.000000" fill="white" fill-opacity="0"></rect></clipPath></defs><rect data-v-54e62159="" id="点踩0718" width="20.000000" height="20.000000" fill="#FFFFFF" fill-opacity="0"></rect><g data-v-54e62159="" clip-path="url(#clip1348_20218)"><path data-v-54e62159="" id="path" d="M3.71 13.17C3.53 13.17 3.36 13.16 3.18 13.12C3.01 13.09 2.84 13.04 2.67 12.97C2.51 12.9 2.35 12.82 2.2 12.72C2.05 12.62 1.92 12.51 1.79 12.38C1.66 12.25 1.55 12.12 1.45 11.97C1.35 11.82 1.27 11.67 1.2 11.5C1.13 11.34 1.08 11.17 1.05 11C1.01 10.82 1 10.65 1 10.47L1 4.19C1 4.02 1.02 3.84 1.06 3.67C1.09 3.5 1.15 3.33 1.22 3.17C1.29 3.01 1.37 2.86 1.47 2.71C1.57 2.57 1.68 2.43 1.81 2.31C1.93 2.19 2.07 2.08 2.22 1.98C2.36 1.88 2.52 1.8 2.68 1.74C2.84 1.67 3.01 1.62 3.19 1.59C3.36 1.55 3.53 1.54 3.71 1.54C3.89 1.54 4.06 1.55 4.23 1.59C4.41 1.62 4.57 1.67 4.74 1.74C4.9 1.8 5.06 1.88 5.2 1.98C5.35 2.08 5.49 2.19 5.61 2.31C5.74 2.43 5.85 2.57 5.95 2.71C6.05 2.86 6.13 3.01 6.2 3.17C6.27 3.33 6.33 3.5 6.36 3.67C6.4 3.84 6.42 4.02 6.42 4.19L6.42 10.47C6.42 10.65 6.41 10.82 6.37 11C6.34 11.17 6.28 11.34 6.22 11.5C6.15 11.67 6.06 11.82 5.97 11.97C5.87 12.12 5.75 12.25 5.63 12.38C5.5 12.51 5.36 12.62 5.22 12.72C5.07 12.82 4.91 12.9 4.75 12.97C4.58 13.04 4.41 13.09 4.24 13.12C4.06 13.16 3.89 13.17 3.71 13.17ZM3.71 3.14C3.57 3.14 3.43 3.16 3.3 3.22C3.17 3.27 3.06 3.35 2.96 3.45C2.86 3.54 2.78 3.66 2.73 3.79C2.67 3.92 2.65 4.05 2.64 4.2L2.64 10.47C2.64 10.62 2.66 10.75 2.72 10.89C2.77 11.02 2.85 11.14 2.95 11.24C3.05 11.34 3.16 11.42 3.29 11.48C3.43 11.54 3.57 11.56 3.71 11.56C3.85 11.56 3.99 11.54 4.12 11.48C4.26 11.42 4.37 11.34 4.47 11.24C4.57 11.14 4.65 11.02 4.7 10.89C4.75 10.75 4.78 10.62 4.77 10.47L4.77 4.2C4.77 4.05 4.75 3.92 4.69 3.79C4.64 3.66 4.56 3.54 4.46 3.44C4.36 3.34 4.25 3.27 4.12 3.21C3.99 3.16 3.85 3.14 3.71 3.14Z" fill="currentColor" fill-opacity="1.000000" fill-rule="nonzero"></path><path data-v-54e62159="" id="path" d="M9.09 18.95C9.04 18.95 8.99 18.95 8.93 18.95C8.75 18.93 8.57 18.89 8.4 18.83C8.23 18.77 8.07 18.69 7.92 18.58C7.78 18.48 7.64 18.35 7.53 18.21C7.42 18.07 7.32 17.92 7.25 17.75L5.31 13.26C4.95 12.44 4.77 11.58 4.77 10.69L4.77 4.61C4.77 4.37 4.8 4.14 4.84 3.9C4.89 3.67 4.96 3.45 5.05 3.23C5.14 3.01 5.25 2.8 5.39 2.6C5.52 2.4 5.67 2.22 5.84 2.05C6.01 1.89 6.19 1.74 6.39 1.61C6.58 1.47 6.79 1.36 7.01 1.27C7.23 1.18 7.46 1.11 7.69 1.07C7.93 1.02 8.16 1 8.4 1L11.24 1C11.71 1 12.18 1.05 12.64 1.16C13.1 1.28 13.54 1.44 13.97 1.66C14.39 1.88 14.78 2.14 15.13 2.46C15.49 2.77 15.8 3.12 16.08 3.5L17.71 5.82C18.13 6.43 18.46 7.08 18.68 7.79C18.91 8.5 19.02 9.22 19.02 9.96C19.02 10.21 18.99 10.45 18.95 10.69C18.9 10.93 18.83 11.16 18.73 11.38C18.64 11.61 18.53 11.82 18.39 12.03C18.25 12.23 18.1 12.42 17.92 12.59C17.75 12.76 17.56 12.92 17.36 13.05C17.15 13.19 16.94 13.3 16.71 13.4C16.49 13.49 16.25 13.56 16.01 13.61C15.77 13.66 15.53 13.68 15.28 13.68L12.54 13.68C12.37 13.68 12.21 13.71 12.05 13.78C11.89 13.84 11.75 13.94 11.63 14.06C11.51 14.18 11.42 14.32 11.35 14.48C11.29 14.63 11.26 14.8 11.26 14.97L11.26 16.71C11.25 17.09 11.15 17.43 10.95 17.75L10.78 18.02C10.6 18.31 10.36 18.54 10.06 18.7C9.76 18.87 9.43 18.95 9.09 18.95ZM8.4 2.64C8.27 2.64 8.14 2.65 8.01 2.68C7.88 2.7 7.76 2.74 7.64 2.79C7.52 2.84 7.41 2.9 7.3 2.97C7.19 3.04 7.09 3.12 7 3.21C6.91 3.31 6.83 3.41 6.75 3.51C6.68 3.62 6.62 3.73 6.57 3.85C6.52 3.97 6.48 4.1 6.46 4.22C6.43 4.35 6.42 4.48 6.42 4.61L6.42 10.69C6.42 11.35 6.55 11.99 6.82 12.6L8.76 17.1C8.82 17.23 8.92 17.3 9.06 17.31C9.2 17.32 9.31 17.26 9.39 17.14L9.56 16.87C9.59 16.83 9.61 16.77 9.61 16.71L9.61 14.96C9.61 14.77 9.63 14.58 9.66 14.39C9.7 14.2 9.76 14.02 9.83 13.84C9.9 13.66 10 13.5 10.1 13.34C10.21 13.18 10.33 13.03 10.47 12.89C10.6 12.76 10.75 12.63 10.91 12.53C11.07 12.42 11.24 12.33 11.42 12.26C11.6 12.18 11.78 12.13 11.97 12.09C12.16 12.05 12.35 12.03 12.55 12.03L15.28 12.03C15.42 12.03 15.56 12.02 15.69 11.99C15.82 11.97 15.96 11.93 16.08 11.87C16.21 11.82 16.33 11.76 16.44 11.68C16.56 11.61 16.66 11.52 16.76 11.42C16.85 11.33 16.94 11.22 17.02 11.11C17.09 11 17.16 10.88 17.21 10.75C17.26 10.62 17.3 10.5 17.33 10.36C17.35 10.23 17.37 10.09 17.37 9.96C17.37 9.38 17.28 8.83 17.11 8.28C16.94 7.74 16.69 7.23 16.36 6.76L14.73 4.44C14.53 4.16 14.3 3.91 14.04 3.69C13.79 3.46 13.51 3.27 13.2 3.11C12.9 2.96 12.58 2.84 12.25 2.76C11.92 2.68 11.58 2.63 11.24 2.63L8.4 2.64Z" fill="currentColor" fill-opacity="1.000000" fill-rule="nonzero"></path></g></svg>