<svg data-v-306fc132="" xmlns="http://www.w3.org/2000/svg" xmlns:xlink="http://www.w3.org/1999/xlink" width="14" height="15.5" viewBox="0 0 14 15.5" fill="none"><path stroke="rgba(255, 96, 96, 1)" stroke-width="1.5" d="M0.75 3.25L13.25 3.25"></path><path stroke="rgba(255, 96, 96, 1)" stroke-width="1.5" stroke-linejoin="round" d="M5.25 3.25L5.25 0.75L9.75 0.75L9.75 3.25"></path><path stroke="rgba(255, 96, 96, 1)" stroke-width="1.5" d="M1.25 5.75C1.25 5.75 1.74693 11.25 2.25 12.75C2.75307 14.25 3.75309 14.75 4.25 14.75C4.74691 14.75 7.75 14.75 7.75 14.75M5.25 7.25L5.25 10.75M9.25 7.25L9.25 10.75"></path><path stroke="rgba(255, 96, 96, 1)" stroke-width="1.5" d="M13.25 5.75C13.25 5.75 12.7531 11.25 12.25 12.75C11.7469 14.25 10.7469 14.75 10.25 14.75C9.75309 14.75 6.75 14.75 6.75 14.75"></path></svg>