<svg data-v-7a8e0f88="" viewBox="0 0 18 18" fill="none" xmlns="http://www.w3.org/2000/svg"><path data-v-7a8e0f88="" d="M2.5 18c-.663 0-1.298-.294-1.767-.815A2.944 2.944 0 0 1 0 15.222V8.777c0-.737.263-1.443.732-1.964C1.202 6.293 1.837 6 2.5 6s1.299.293 1.768.813A2.94 2.94 0 0 1 5 8.777v6.445c0 .737-.264 1.443-.733 1.963-.469.521-1.104.814-1.767.815zm0-10.308a.934.934 0 0 0-.693.319c-.183.204-.287.48-.287.77v6.445c0 .288.103.565.287.77.184.204.433.319.693.32.26-.001.51-.116.693-.32.183-.205.287-.482.287-.77V8.78c0-.143-.025-.285-.074-.417a1.105 1.105 0 0 0-.212-.354.981.981 0 0 0-.318-.237.897.897 0 0 0-.376-.084v.004z" fill="currentColor"></path><path data-v-7a8e0f88="" d="M10.352 18H7.564a3.539 3.539 0 0 1-2.519-1.062A3.658 3.658 0 0 1 4 14.378V8.281c0-.884.177-1.76.523-2.572l1.911-4.502c.142-.334.371-.622.662-.834A1.949 1.949 0 0 1 9.122.21c.32.163.59.411.782.719l.171.271c.194.312.298.673.298 1.041v1.755c0 .341.134.669.371.91.238.242.56.378.896.378h2.691a3.64 3.64 0 0 1 2.594 1.092A3.76 3.76 0 0 1 18 9.014a7.267 7.267 0 0 1-1.288 4.147l-1.602 2.325a5.84 5.84 0 0 1-2.076 1.848 5.735 5.735 0 0 1-2.682.666zM8.245 1.648h-.03a.331.331 0 0 0-.293.212L6.012 6.36a4.882 4.882 0 0 0-.39 1.92v6.095c0 .524.205 1.026.569 1.396.364.37.858.579 1.373.58h2.788c.672-.001 1.335-.166 1.931-.481a4.208 4.208 0 0 0 1.495-1.332l1.603-2.324a5.616 5.616 0 0 0 .994-3.201 2.1 2.1 0 0 0-.6-1.472 2.031 2.031 0 0 0-1.448-.61h-2.691c-.766-.001-1.5-.31-2.042-.861a2.964 2.964 0 0 1-.847-2.075V2.241a.297.297 0 0 0-.046-.16l-.17-.272a.334.334 0 0 0-.286-.16z" fill="currentColor"></path></svg>