<svg data-v-1883eae7="" xmlns="http://www.w3.org/2000/svg" xmlns:xlink="http://www.w3.org/1999/xlink" width="24" height="24" viewBox="0 0 24 24" fill="none"><rect x="0" y="0" width="24.000000092651817" height="24" fill="#FFFFFF" fill-opacity="0"></rect><path d="M20.412 9.15599L16.776 9.14399C16.656 9.14399 16.548 9.11999 16.44 9.07199C16.344 9.02399 16.248 8.96399 16.164 8.87999C16.08 8.79599 16.02 8.69999 15.984 8.59199C15.936 8.48399 15.912 8.37599 15.912 8.25599C15.912 8.14799 15.936 8.02799 15.984 7.91999C16.02 7.81199 16.08 7.71599 16.164 7.63199C16.248 7.55999 16.344 7.48799 16.44 7.45199C16.548 7.40399 16.656 7.37999 16.776 7.37999L18.684 7.39199C18.804 7.39199 18.912 7.36799 19.02 7.31999C19.128 7.27199 19.212 7.21199 19.296 7.12799C19.38 7.04399 19.44 6.94799 19.476 6.83999C19.524 6.73199 19.548 6.62399 19.548 6.50399L19.56 4.66799C19.56 4.54799 19.584 4.43999 19.632 4.33199C19.668 4.22399 19.728 4.12799 19.812 4.04399C19.896 3.95999 19.992 3.89999 20.088 3.85199C20.196 3.80399 20.304 3.79199 20.424 3.79199C20.532 3.79199 20.64 3.80399 20.748 3.85199C20.856 3.89999 20.952 3.95999 21.024 4.04399C21.108 4.12799 21.168 4.22399 21.216 4.33199C21.252 4.43999 21.276 4.54799 21.276 4.66799L21.264 8.27999C21.264 8.39999 21.252 8.50799 21.204 8.61599C21.156 8.72399 21.096 8.80799 21.024 8.89199C20.94 8.97599 20.844 9.03599 20.748 9.08399C20.64 9.13199 20.532 9.15599 20.412 9.15599Z" fill="#000000"></path><path d="M2.77197 19.548L2.78397 15.96C2.78397 15.852 2.80797 15.732 2.84397 15.624C2.89197 15.516 2.95197 15.42 3.03597 15.336C3.11997 15.252 3.20397 15.192 3.31197 15.144C3.41997 15.096 3.52797 15.072 3.63597 15.072L7.28397 15.084C7.39197 15.084 7.49997 15.108 7.60797 15.156C7.71597 15.204 7.81197 15.264 7.88397 15.348C7.96797 15.432 8.02797 15.528 8.07597 15.636C8.11197 15.744 8.13597 15.864 8.13597 15.984C8.13597 16.092 8.11197 16.212 8.07597 16.32C8.02797 16.428 7.96797 16.524 7.88397 16.608C7.81197 16.692 7.71597 16.752 7.60797 16.8C7.49997 16.848 7.39197 16.872 7.28397 16.872L5.36397 16.86C5.25597 16.86 5.14797 16.884 5.03997 16.932C4.93197 16.98 4.83597 17.04 4.76397 17.124C4.67997 17.208 4.61997 17.304 4.57197 17.412C4.53597 17.52 4.51197 17.64 4.51197 17.76L4.49997 19.548C4.49997 19.668 4.47597 19.776 4.42797 19.896C4.37997 20.004 4.31997 20.1 4.24797 20.184C4.16397 20.268 4.06797 20.328 3.95997 20.376C3.86397 20.412 3.75597 20.436 3.63597 20.436C3.52797 20.436 3.41997 20.424 3.31197 20.376C3.20397 20.328 3.10797 20.268 3.02397 20.184C2.95197 20.1 2.87997 20.004 2.84397 19.896C2.79597 19.788 2.77197 19.668 2.77197 19.548Z" fill="#000000"></path><path d="M11.856 21.612C11.412 21.612 10.98 21.588 10.548 21.528C10.104 21.468 9.68399 21.384 9.25199 21.276C8.83199 21.156 8.42399 21.012 8.01599 20.844C7.60799 20.676 7.22399 20.484 6.83999 20.268C6.46799 20.04 6.10799 19.8 5.75999 19.536C5.42399 19.26 5.09999 18.972 4.78799 18.66C4.48799 18.348 4.19999 18.024 3.94799 17.676C3.68399 17.328 3.45599 16.956 3.23999 16.584L4.97999 15.66C5.18399 16.02 5.41199 16.368 5.66399 16.692C5.91599 17.016 6.20399 17.316 6.50399 17.592C6.80399 17.88 7.12799 18.132 7.47599 18.36C7.82399 18.588 8.19599 18.792 8.56799 18.972C8.95199 19.14 9.33599 19.284 9.74399 19.392C10.14 19.5 10.56 19.584 10.968 19.632C11.388 19.668 11.796 19.68 12.216 19.668C12.636 19.644 13.044 19.596 13.464 19.512C13.872 19.428 14.268 19.308 14.652 19.164C15.048 19.008 15.42 18.84 15.78 18.636C16.14 18.42 16.488 18.192 16.812 17.928C17.136 17.664 17.436 17.388 17.712 17.076C17.988 16.764 18.24 16.44 18.456 16.092C18.684 15.744 18.876 15.384 19.044 15C19.2 14.628 19.332 14.244 19.44 13.836C19.536 13.44 19.608 13.044 19.632 12.624C19.644 12.504 19.68 12.396 19.728 12.288C19.776 12.18 19.848 12.084 19.932 12C20.028 11.916 20.124 11.844 20.232 11.808C20.352 11.76 20.46 11.724 20.592 11.724C20.724 11.724 20.856 11.748 20.988 11.796C21.12 11.844 21.24 11.928 21.336 12.024C21.432 12.12 21.504 12.24 21.552 12.36C21.6 12.492 21.612 12.624 21.6 12.768C21.576 13.068 21.54 13.356 21.492 13.656C21.432 13.944 21.372 14.244 21.288 14.532C21.216 14.82 21.12 15.096 21.012 15.384C20.904 15.66 20.784 15.936 20.652 16.2C20.52 16.476 20.376 16.74 20.22 16.992C20.052 17.244 19.884 17.496 19.704 17.736C19.524 17.976 19.332 18.204 19.128 18.432C18.924 18.648 18.708 18.864 18.492 19.068C18.264 19.272 18.036 19.464 17.796 19.644C17.556 19.824 17.304 19.992 17.04 20.148C16.788 20.316 16.524 20.46 16.248 20.592C15.972 20.724 15.696 20.844 15.42 20.952C15.132 21.06 14.844 21.156 14.556 21.24C14.256 21.324 13.968 21.396 13.668 21.444C13.368 21.504 13.068 21.552 12.756 21.576C12.456 21.6 12.156 21.612 11.856 21.612Z" fill="#000000"></path><path d="M3.42002 12.324C3.27602 12.336 3.14402 12.312 3.01202 12.264C2.88002 12.204 2.77202 12.132 2.67602 12.036C2.56802 11.94 2.49602 11.82 2.44802 11.688C2.40002 11.556 2.38802 11.424 2.40002 11.292C2.43602 10.776 2.52002 10.272 2.64002 9.78001C2.76002 9.27601 2.91602 8.79601 3.12002 8.32801C3.31202 7.84801 3.55202 7.39201 3.82802 6.96001C4.09202 6.52801 4.40402 6.12001 4.74002 5.72401C5.08802 5.34001 5.44802 4.98001 5.85602 4.65601C6.25202 4.32001 6.67202 4.02001 7.11602 3.75601C7.56002 3.49201 8.02802 3.27601 8.50802 3.08401C9.00002 2.89201 9.49202 2.73601 9.99602 2.62801C10.5 2.50801 11.016 2.43601 11.544 2.41201C12.06 2.37601 12.576 2.38801 13.092 2.43601C13.62 2.48401 14.124 2.56801 14.628 2.70001C15.132 2.83201 15.624 3.00001 16.104 3.20401C16.572 3.40801 17.028 3.64801 17.472 3.93601C17.904 4.21201 18.324 4.52401 18.708 4.86001C19.092 5.20801 19.452 5.56801 19.776 5.97601C20.1 6.37201 20.4 6.79201 20.652 7.23601L18.936 8.19601C18.732 7.84801 18.504 7.50001 18.24 7.18801C17.976 6.87601 17.688 6.57601 17.388 6.30001C17.076 6.02401 16.752 5.78401 16.392 5.55601C16.044 5.34001 15.684 5.14801 15.3 4.98001C14.928 4.81201 14.532 4.68001 14.124 4.58401C13.728 4.47601 13.32 4.40401 12.912 4.36801C12.492 4.33201 12.084 4.32001 11.664 4.34401C11.244 4.36801 10.836 4.42801 10.428 4.52401C10.032 4.60801 9.63602 4.72801 9.25202 4.88401C8.85602 5.04001 8.49602 5.22001 8.13602 5.42401C7.77602 5.64001 7.44002 5.86801 7.12802 6.13201C6.80402 6.39601 6.51602 6.68401 6.24002 6.99601C5.96402 7.29601 5.72402 7.63201 5.50802 7.98001C5.29202 8.32801 5.10002 8.68801 4.94402 9.06001C4.77602 9.44401 4.65602 9.82801 4.56002 10.224C4.46402 10.62 4.39202 11.028 4.36802 11.436C4.35602 11.544 4.32002 11.664 4.27202 11.772C4.22402 11.88 4.15202 11.976 4.06802 12.06C3.98402 12.144 3.87602 12.204 3.76802 12.252C3.66002 12.3 3.54002 12.324 3.42002 12.324Z" fill="#000000"></path></svg>