<svg data-v-a529b390="" data-v-682e2ac5="" xmlns="http://www.w3.org/2000/svg" xmlns:xlink="http://www.w3.org/1999/xlink" width="14" height="15.5" viewBox="0 0 14 15.5" fill="none" data-v-82bf1d84=""><path data-v-a529b390="" fill="currentColor" d="M4.40002 0L9.60002 0C11.6711 0 13.35 1.67893 13.35 3.75L13.35 11.75C13.35 13.8211 11.6711 15.5 9.60002 15.5L4.40002 15.5C2.32896 15.5 0.650024 13.8211 0.650024 11.75L0.650024 3.75C0.650024 1.67893 2.32896 0 4.40002 0ZM4.40002 1.5C3.15738 1.5 2.15002 2.50736 2.15002 3.75L2.15002 11.75C2.15002 12.9926 3.15738 14 4.40002 14L9.60002 14C10.8427 14 11.85 12.9926 11.85 11.75L11.85 3.75C11.85 2.50736 10.8427 1.5 9.60002 1.5L4.40002 1.5Z"></path><path data-v-a529b390="" stroke="currentColor" stroke-width="1.5" stroke-linecap="round" d="M4.20001 8.45L7.70001 8.45"></path><path data-v-a529b390="" stroke="currentColor" stroke-width="1.5" stroke-linecap="round" d="M4.20001 4.95L9.80001 4.95"></path></svg>